#define battery_empty_width 20
#define battery_empty_height 11
static unsigned char battery_empty_bits[] = {
   0xfe, 0xff, 0x01, 0x03, 0x00, 0x03, 0x01, 0x00, 0x02, 0x01, 0x00, 0x0e,
   0x01, 0x00, 0x0e, 0x01, 0x00, 0x0e, 0x01, 0x00, 0x0e, 0x01, 0x00, 0x0e,
   0x01, 0x00, 0x02, 0x03, 0x00, 0x03, 0xfe, 0xff, 0x01 };
