#define battery_half_width 20
#define battery_half_height 11
static unsigned char battery_half_bits[] = {
   0xfe, 0xff, 0x01, 0x03, 0x00, 0x03, 0xfd, 0x01, 0x02, 0xfd, 0x01, 0x0e,
   0xfd, 0x01, 0x0e, 0xfd, 0x01, 0x0e, 0xfd, 0x01, 0x0e, 0xfd, 0x01, 0x0e,
   0xfd, 0x01, 0x02, 0x03, 0x00, 0x03, 0xfe, 0xff, 0x01 };
