#define flash_width 15
#define flash_height 19
static unsigned char flash_bits[] = {
   0x00, 0x04, 0x00, 0x06, 0x00, 0x07, 0x80, 0x03, 0xc0, 0x02, 0x60, 0x02,
   0x30, 0x02, 0x18, 0x7f, 0x0c, 0x60, 0x06, 0x30, 0x03, 0x18, 0x7f, 0x0c,
   0x20, 0x06, 0x20, 0x03, 0xa0, 0x01, 0xe0, 0x00, 0x70, 0x00, 0x30, 0x00,
   0x10, 0x00 };
