#define warning_width 21
#define warning_height 20
static unsigned char warning_bits[] = {
   0x00, 0x0e, 0x00, 0x00, 0x1b, 0x00, 0x00, 0x11, 0x00, 0x80, 0x31, 0x00,
   0x80, 0x20, 0x00, 0xc0, 0x60, 0x00, 0x40, 0x40, 0x00, 0x60, 0xc4, 0x00,
   0x20, 0x84, 0x00, 0x30, 0x84, 0x01, 0x10, 0x04, 0x01, 0x18, 0x04, 0x03,
   0x08, 0x04, 0x02, 0x0c, 0x04, 0x06, 0x04, 0x00, 0x04, 0x06, 0x04, 0x0c,
   0x02, 0x0e, 0x08, 0x03, 0x04, 0x18, 0x01, 0x00, 0x10, 0xff, 0xff, 0x1f };
