#define wifi_width 21
#define wifi_height 16
static unsigned char wifi_bits[] = {
   0x00, 0x1f, 0x00, 0xe0, 0xff, 0x00, 0xf8, 0xf1, 0x03, 0x1e, 0x00, 0x0f,
   0x07, 0x00, 0x1c, 0xc3, 0x7f, 0x18, 0xf0, 0xff, 0x01, 0x78, 0xc0, 0x03,
   0x18, 0x00, 0x03, 0x80, 0x3f, 0x00, 0xc0, 0x7f, 0x00, 0xc0, 0x60, 0x00,
   0x00, 0x00, 0x00, 0x00, 0x0e, 0x00, 0x00, 0x0e, 0x00, 0x00, 0x0e, 0x00 };
